<?xml version="1.0" standalone="no"?><!DOCTYPE svg PUBLIC "-//W3C//DTD SVG 1.1//EN" "http://www.w3.org/Graphics/SVG/1.1/DTD/svg11.dtd"><svg t="1723045746142" class="icon" viewBox="0 0 1024 1024" version="1.1" xmlns="http://www.w3.org/2000/svg" p-id="1342" xmlns:xlink="http://www.w3.org/1999/xlink" width="512" height="512"><path d="M483.786354 869.384887c-88.68694 68.1318-216.714034 62.171171-298.212093-18.423764-81.49806-80.522684-87.530939-207.177027-18.604389-294.816341l-1.336626-1.408876L545.090524 179.577507c66.181048-65.458548 173.472377-65.458548 239.653426-0.072251 66.108798 65.458548 66.108798 171.593876-0.07225 236.980174l-359.407889 355.506385c-44.144782 43.602907-115.63621 43.602907-159.780992 0-44.108657-43.602907-44.108657-114.335709 0-158.010865l319.561984-315.985607 39.95428 39.484654-319.561984 315.985607a55.408566 55.408566 0 0 0 0 79.005432c22.072391 21.783391 57.836167 21.783391 79.872433 0l359.480139-355.506385c44.036407-43.602907 44.036407-114.299584 0-158.010866-44.144782-43.602907-115.63621-43.602907-159.780993 0l-359.480138 355.506386c-66.181048 65.458548-66.181048 171.521626 0 237.016298s173.472377 65.458548 239.653426 0l399.362167-394.991039 39.954279 39.484654-419.375432 414.751429-1.336626-1.336626z" fill="#a9aeba" p-id="1343"></path></svg>