<?xml version="1.0" standalone="no"?><!DOCTYPE svg PUBLIC "-//W3C//DTD SVG 1.1//EN" "http://www.w3.org/Graphics/SVG/1.1/DTD/svg11.dtd"><svg t="1723045774338" class="icon" viewBox="0 0 1024 1024" version="1.1" xmlns="http://www.w3.org/2000/svg" p-id="1948" xmlns:xlink="http://www.w3.org/1999/xlink" width="512" height="512"><path d="M821.663727 960.022578H204.431525c-61.918295 0-112.168207-50.249912-112.168207-112.276582V230.622169c0-61.990545 50.249912-112.168207 112.168207-112.168207h112.276582V90.312566a28.033021 28.033021 0 0 1 56.066041 0v28.105271h280.583081V90.312566a28.033021 28.033021 0 0 1 28.03302-28.03302c15.497636 0 28.105271 12.535384 28.105271 28.03302v28.105271h112.168207c61.990545 0 112.168207 50.177662 112.168207 112.168207v617.123827c0 62.02667-50.177662 112.312707-112.168207 112.312707z m56.138291-729.400409c0-30.959148-25.179143-56.138291-56.138291-56.138291H709.49552v28.10527c0 15.497636-12.643759 28.033021-28.105271 28.033021-15.497636 0-28.033021-12.535384-28.03302-28.033021V174.483878h-280.583081v28.10527c0 15.497636-12.535384 28.033021-28.033021 28.033021-15.497636 0-28.033021-12.535384-28.03302-28.033021V174.483878H204.431525c-30.959148 0-56.029916 25.179143-56.029916 56.138291v56.138291h729.400409V230.622169z m0 112.168207H148.401609v504.95562c0 31.031398 25.070768 56.138291 56.029916 56.138291h617.232202c30.959148 0 56.138291-25.070768 56.138291-56.138291V342.790376z m-112.276582 504.95562H709.49552c-31.031398 0-56.138291-25.070768-56.138291-56.029916v-56.138291c0-30.959148 25.070768-56.138291 56.138291-56.138291h56.029916c31.031398 0 56.138291 25.179143 56.138291 56.138291v56.138291c0 30.923023-25.106893 56.029916-56.138291 56.029916z m0-112.204332H709.49552v56.138291h56.029916v-56.138291z m0-112.168207H709.49552c-31.031398 0-56.138291-25.179143-56.138291-56.138292v-56.138291c0-30.959148 25.070768-56.029916 56.138291-56.029916h56.029916c31.031398 0 56.138291 25.106893 56.138291 56.029916v56.138291c0 30.959148-25.106893 56.138291-56.138291 56.138292z m0-112.276583H709.49552v56.138291h56.029916v-56.138291z m-224.37254 336.649122h-56.138291c-30.959148 0-56.138291-25.070768-56.138291-56.029916v-56.138291c0-30.959148 25.179143-56.138291 56.138291-56.138291h56.138291c30.959148 0 56.029916 25.179143 56.029916 56.138291v56.138291c0.036125 30.923023-25.070768 56.029916-56.029916 56.029916z m0-112.204332h-56.138291v56.138291h56.138291v-56.138291z m0-112.168207h-56.138291c-30.959148 0-56.138291-25.179143-56.138291-56.138292v-56.138291c0-30.959148 25.179143-56.029916 56.138291-56.029916h56.138291c30.959148 0 56.029916 25.106893 56.029916 56.029916v56.138291c0.036125 30.959148-25.070768 56.138291-56.029916 56.138292z m0-112.276583h-56.138291v56.138291h56.138291v-56.138291z m-224.444789 336.649122H260.569816c-30.959148 0-56.138291-25.070768-56.138291-56.029916v-56.138291c0-30.959148 25.179143-56.138291 56.138291-56.138291h56.138291c30.959148 0 56.029916 25.179143 56.029916 56.138291v56.138291c0 30.923023-25.070768 56.029916-56.029916 56.029916z m0-112.204332H260.569816v56.138291h56.138291v-56.138291z m0-112.168207H260.569816c-30.959148 0-56.138291-25.179143-56.138291-56.138292v-56.138291c0-30.959148 25.179143-56.029916 56.138291-56.029916h56.138291c30.959148 0 56.029916 25.106893 56.029916 56.029916v56.138291c0 30.959148-25.070768 56.138291-56.029916 56.138292z m0-112.276583H260.569816v56.138291h56.138291v-56.138291z" fill="#ffffff" p-id="1949"></path></svg>