<?xml version="1.0" standalone="no"?><!DOCTYPE svg PUBLIC "-//W3C//DTD SVG 1.1//EN" "http://www.w3.org/Graphics/SVG/1.1/DTD/svg11.dtd"><svg t="1723045760872" class="icon" viewBox="0 0 1024 1024" version="1.1" xmlns="http://www.w3.org/2000/svg" p-id="1618" xmlns:xlink="http://www.w3.org/1999/xlink" width="512" height="512"><path d="M750.497425 777.229944c84.351937-47.50441 140.201228-129.688845 140.201227-223.216538 0-59.172793-22.578142-113.613208-60.328794-157.830241 2.492627-17.267763 4.262753-34.680025 4.262753-52.561913 0-8.092006-0.903126-16.111762-1.408876-24.095393 69.829676 58.089043 113.613208 140.020603 113.613208 231.019544 0 102.12545-54.98229 192.799266-140.273477 251.141184v159.166867l-157.17999-96.887321c-21.783391 3.540253-44.217032 5.707754-67.2648 5.707754-108.013829 0-176.687504-41.363155-243.482678-106.677203 11.018133 0.614125 21.964016 1.408876 33.090524 1.408876 15.750512 0 31.139773-0.722501 46.456784-1.950752 52.742539 36.305652 91.360192 58.089043 163.971495 58.089043 25.070768 0 49.274536-2.853877 72.611304-7.730756l95.80357 63.869047v-99.452198h-0.07225z m-308.579976-68.8543c-23.047767 0-72.575178-3.829253-94.394694-7.369506l-158.083116 91.540817v-159.166866c-73.297679-62.351796-112.276582-149.087984-112.276582-251.141184 0-176.254004 163.068369-319.092359 364.754392-319.092359 167.692373 0 336.649122 142.87448 336.649121 319.092359-0.036125 176.254004-135.252099 326.136739-336.649121 326.136739z m-100.608199-63.869047c23.300642 4.913004 75.53743 7.730756 100.608199 7.730756 170.437875 0 280.51083-119.284837 280.51083-266.530445 0-147.137233-140.995978-266.42207-280.51083-266.422071-175.242503 0-308.616101 119.284837-308.616101 266.422071 0 93.491568 43.783532 167.692373 112.168207 223.216538v99.452198l95.839695-63.869047z m254.862062-216.677909c-23.228392 0-42.085656-18.785014-42.085656-42.085655 0-23.228392 18.857264-42.085656 42.085656-42.085656 23.228392 0 42.085656 18.857264 42.085655 42.085656 0 23.300642-18.857264 42.085656-42.085655 42.085655z m-168.306499 0c-23.228392 0-42.085656-18.785014-42.085655-42.085655 0-23.228392 18.857264-42.085656 42.085655-42.085656 23.228392 0 42.085656 18.857264 42.085656 42.085656-0.036125 23.300642-18.893389 42.085656-42.085656 42.085655z m-168.342623 0c-23.228392 0-42.085656-18.785014-42.085656-42.085655 0-23.228392 18.857264-42.085656 42.085656-42.085656 23.228392 0 42.085656 18.857264 42.085656 42.085656 0 23.300642-18.857264 42.085656-42.085656 42.085655z" fill="#a9aeba" p-id="1619"></path></svg>