<?xml version="1.0" standalone="no"?><!DOCTYPE svg PUBLIC "-//W3C//DTD SVG 1.1//EN" "http://www.w3.org/Graphics/SVG/1.1/DTD/svg11.dtd"><svg t="1723045694612" class="icon" viewBox="0 0 1024 1024" version="1.1" xmlns="http://www.w3.org/2000/svg" p-id="2930" xmlns:xlink="http://www.w3.org/1999/xlink" width="512" height="512"><path d="M896 213.333333h-362.666667l-85.333333-85.333333H128c-25.6 0-42.666667 17.066667-42.666667 42.666667v682.666666c0 25.6 17.066667 42.666667 42.666667 42.666667h768c25.6 0 42.666667-17.066667 42.666667-42.666667V256c0-25.6-17.066667-42.666667-42.666667-42.666667z m-42.666667 597.333334H170.666667V213.333333h243.2l85.333333 85.333334H853.333333v512z" fill="#a9aeba" p-id="2931"></path><path d="M469.333333 362.666667v46.933333c-21.333333 8.533333-42.666667 17.066667-59.733333 34.133333l-42.666667-25.6-42.666666 72.533334 42.666666 25.6c-4.266667 12.8-4.266667 21.333333-4.266666 34.133333 0 25.6 8.533333 51.2 17.066666 72.533333l-34.133333 34.133334 59.733333 59.733333 34.133334-34.133333c8.533333 4.266667 17.066667 8.533333 29.866666 12.8v46.933333h85.333334v-46.933333c21.333333-8.533333 42.666667-17.066667 59.733333-34.133334l42.666667 25.6 42.666666-72.533333-42.666666-25.6c4.266667-12.8 4.266667-21.333333 4.266666-34.133333 0-25.6-8.533333-51.2-17.066666-72.533334l34.133333-34.133333-59.733333-59.733333-34.133334 34.133333c-8.533333-4.266667-17.066667-8.533333-29.866666-12.8V362.666667h-85.333334z m106.666667 192c0 34.133333-29.866667 64-64 64s-64-29.866667-64-64 29.866667-64 64-64 64 29.866667 64 64z" fill="#a9aeba" p-id="2932"></path></svg>